# xmcd CD database file
# Copyright (C) 1993-1998 Ti Kan
#
# Track frame offsets:
#  182
#  14765
#  33865
#  46030
#  57140
#  72765
#  91697
#  105840
#  119082
#  134855
#  154510
#  169662
#  187667
#  203617
#  220262
#  236630
#
# Disc length: 3375 seconds
#
# Revision: 1
# Processed by: cddbd v1.4b41PL1 Copyright (c) Steve Scherf et al.
# Submitted via: CDWizzard Release:4.35
#
DISCID=cd0d2d10
DTITLE=The Judds - Their Finest Collection
DYEAR=1900
DGENRE=
TTITLE0=Mama He's Crazy
TTITLE1=Grandpa (Tell Me 'Bout The Good Old Days)
TTITLE2=Rockin' With The Rhythm Of The Rain
TTITLE3=Don't Be Cruel
TTITLE4=Why Not Me
TTITLE5=Water Of Love
TTITLE6=Give A Little Love To Me
TTITLE7=Girls Night Out
TTITLE8=Maybe Your Baby's Got The Blues
TTITLE9=Young Love
TTITLE10=Have Mercy
TTITLE11=Love Is Alive
TTITLE12=Change Of Heart
TTITLE13=Turn It Loose
TTITLE14=I Know Where I'm Going
TTITLE15=Cry Myself To Sleep
EXTD=
EXTT0=
EXTT1=
EXTT2=
EXTT3=
EXTT4=
EXTT5=
EXTT6=
EXTT7=
EXTT8=
EXTT9=
EXTT10=
EXTT11=
EXTT12=
EXTT13=
EXTT14=
EXTT15=
PLAYORDER=
